ISO-10303-21;
HEADER;
/* Generated by software containing ST-Developer
 * from STEP Tools, Inc. (www.steptools.com) 
 */

FILE_DESCRIPTION(
/* description */ (''),
/* implementation_level */ '2;1');

FILE_NAME(
/* name */ 'SRN6045-150M.stp',
/* time_stamp */ '2026-09-04T21:23:12+02:00',
/* author */ ('utente'),
/* organization */ (''),
/* preprocessor_version */ 'ST-DEVELOPER v19.2',
/* originating_system */ 'Autodesk Inventor 2024',
/* authorisation */ '');

FILE_SCHEMA (('AUTOMOTIVE_DESIGN { 1 0 10303 214 3 1 1 }'));
ENDSEC;

DATA;
#10=MECHANICAL_DESIGN_GEOMETRIC_PRESENTATION_REPRESENTATION('',(#13),#332);
#11=SHAPE_REPRESENTATION_RELATIONSHIP('SRR','None',#339,#12);
#12=ADVANCED_BREP_SHAPE_REPRESENTATION('',(#14),#331);
#13=STYLED_ITEM('',(#349),#14);
#14=MANIFOLD_SOLID_BREP('Solid1',#183);
#15=PLANE('',#209);
#16=PLANE('',#210);
#17=PLANE('',#216);
#18=PLANE('',#219);
#19=PLANE('',#222);
#20=PLANE('',#223);
#21=FACE_OUTER_BOUND('',#31,.T.);
#22=FACE_OUTER_BOUND('',#32,.T.);
#23=FACE_OUTER_BOUND('',#33,.T.);
#24=FACE_OUTER_BOUND('',#34,.T.);
#25=FACE_OUTER_BOUND('',#35,.T.);
#26=FACE_OUTER_BOUND('',#36,.T.);
#27=FACE_OUTER_BOUND('',#37,.T.);
#28=FACE_OUTER_BOUND('',#38,.T.);
#29=FACE_OUTER_BOUND('',#39,.T.);
#30=FACE_OUTER_BOUND('',#40,.T.);
#31=EDGE_LOOP('',(#121,#122,#123,#124));
#32=EDGE_LOOP('',(#125,#126,#127,#128));
#33=EDGE_LOOP('',(#129,#130,#131,#132,#133,#134,#135,#136));
#34=EDGE_LOOP('',(#137,#138,#139,#140));
#35=EDGE_LOOP('',(#141,#142,#143,#144));
#36=EDGE_LOOP('',(#145,#146,#147,#148));
#37=EDGE_LOOP('',(#149,#150,#151,#152));
#38=EDGE_LOOP('',(#153,#154,#155,#156));
#39=EDGE_LOOP('',(#157,#158,#159,#160));
#40=EDGE_LOOP('',(#161,#162,#163,#164,#165,#166,#167,#168));
#41=LINE('',#284,#57);
#42=LINE('',#287,#58);
#43=LINE('',#290,#59);
#44=LINE('',#292,#60);
#45=LINE('',#293,#61);
#46=LINE('',#296,#62);
#47=LINE('',#300,#63);
#48=LINE('',#304,#64);
#49=LINE('',#310,#65);
#50=LINE('',#311,#66);
#51=LINE('',#314,#67);
#52=LINE('',#315,#68);
#53=LINE('',#319,#69);
#54=LINE('',#321,#70);
#55=LINE('',#325,#71);
#56=LINE('',#327,#72);
#57=VECTOR('',#230,10.);
#58=VECTOR('',#233,10.);
#59=VECTOR('',#236,10.);
#60=VECTOR('',#237,10.);
#61=VECTOR('',#238,10.);
#62=VECTOR('',#241,10.);
#63=VECTOR('',#244,10.);
#64=VECTOR('',#247,10.);
#65=VECTOR('',#254,10.);
#66=VECTOR('',#255,10.);
#67=VECTOR('',#258,10.);
#68=VECTOR('',#259,10.);
#69=VECTOR('',#264,10.);
#70=VECTOR('',#267,10.);
#71=VECTOR('',#272,10.);
#72=VECTOR('',#275,10.);
#73=CIRCLE('',#207,0.5);
#74=CIRCLE('',#208,0.5);
#75=CIRCLE('',#211,0.5);
#76=CIRCLE('',#212,0.5);
#77=CIRCLE('',#213,0.5);
#78=CIRCLE('',#215,0.5);
#79=CIRCLE('',#218,0.5);
#80=CIRCLE('',#221,0.5);
#81=VERTEX_POINT('',#280);
#82=VERTEX_POINT('',#281);
#83=VERTEX_POINT('',#283);
#84=VERTEX_POINT('',#285);
#85=VERTEX_POINT('',#289);
#86=VERTEX_POINT('',#291);
#87=VERTEX_POINT('',#295);
#88=VERTEX_POINT('',#297);
#89=VERTEX_POINT('',#299);
#90=VERTEX_POINT('',#301);
#91=VERTEX_POINT('',#303);
#92=VERTEX_POINT('',#307);
#93=VERTEX_POINT('',#308);
#94=VERTEX_POINT('',#313);
#95=VERTEX_POINT('',#317);
#96=VERTEX_POINT('',#323);
#97=EDGE_CURVE('',#81,#82,#73,.T.);
#98=EDGE_CURVE('',#82,#83,#41,.T.);
#99=EDGE_CURVE('',#83,#84,#74,.T.);
#100=EDGE_CURVE('',#84,#81,#42,.T.);
#101=EDGE_CURVE('',#84,#85,#43,.T.);
#102=EDGE_CURVE('',#86,#85,#44,.T.);
#103=EDGE_CURVE('',#81,#86,#45,.T.);
#104=EDGE_CURVE('',#87,#83,#46,.T.);
#105=EDGE_CURVE('',#88,#87,#75,.T.);
#106=EDGE_CURVE('',#89,#88,#47,.T.);
#107=EDGE_CURVE('',#90,#89,#76,.T.);
#108=EDGE_CURVE('',#91,#90,#48,.T.);
#109=EDGE_CURVE('',#85,#91,#77,.T.);
#110=EDGE_CURVE('',#92,#93,#78,.T.);
#111=EDGE_CURVE('',#93,#90,#49,.T.);
#112=EDGE_CURVE('',#89,#92,#50,.T.);
#113=EDGE_CURVE('',#94,#88,#51,.T.);
#114=EDGE_CURVE('',#92,#94,#52,.T.);
#115=EDGE_CURVE('',#95,#94,#79,.T.);
#116=EDGE_CURVE('',#87,#95,#53,.T.);
#117=EDGE_CURVE('',#95,#82,#54,.T.);
#118=EDGE_CURVE('',#96,#86,#80,.T.);
#119=EDGE_CURVE('',#91,#96,#55,.T.);
#120=EDGE_CURVE('',#96,#93,#56,.T.);
#121=ORIENTED_EDGE('',*,*,#97,.T.);
#122=ORIENTED_EDGE('',*,*,#98,.T.);
#123=ORIENTED_EDGE('',*,*,#99,.T.);
#124=ORIENTED_EDGE('',*,*,#100,.T.);
#125=ORIENTED_EDGE('',*,*,#100,.F.);
#126=ORIENTED_EDGE('',*,*,#101,.T.);
#127=ORIENTED_EDGE('',*,*,#102,.F.);
#128=ORIENTED_EDGE('',*,*,#103,.F.);
#129=ORIENTED_EDGE('',*,*,#99,.F.);
#130=ORIENTED_EDGE('',*,*,#104,.F.);
#131=ORIENTED_EDGE('',*,*,#105,.F.);
#132=ORIENTED_EDGE('',*,*,#106,.F.);
#133=ORIENTED_EDGE('',*,*,#107,.F.);
#134=ORIENTED_EDGE('',*,*,#108,.F.);
#135=ORIENTED_EDGE('',*,*,#109,.F.);
#136=ORIENTED_EDGE('',*,*,#101,.F.);
#137=ORIENTED_EDGE('',*,*,#110,.T.);
#138=ORIENTED_EDGE('',*,*,#111,.T.);
#139=ORIENTED_EDGE('',*,*,#107,.T.);
#140=ORIENTED_EDGE('',*,*,#112,.T.);
#141=ORIENTED_EDGE('',*,*,#112,.F.);
#142=ORIENTED_EDGE('',*,*,#106,.T.);
#143=ORIENTED_EDGE('',*,*,#113,.F.);
#144=ORIENTED_EDGE('',*,*,#114,.F.);
#145=ORIENTED_EDGE('',*,*,#115,.T.);
#146=ORIENTED_EDGE('',*,*,#113,.T.);
#147=ORIENTED_EDGE('',*,*,#105,.T.);
#148=ORIENTED_EDGE('',*,*,#116,.T.);
#149=ORIENTED_EDGE('',*,*,#98,.F.);
#150=ORIENTED_EDGE('',*,*,#117,.F.);
#151=ORIENTED_EDGE('',*,*,#116,.F.);
#152=ORIENTED_EDGE('',*,*,#104,.T.);
#153=ORIENTED_EDGE('',*,*,#118,.T.);
#154=ORIENTED_EDGE('',*,*,#102,.T.);
#155=ORIENTED_EDGE('',*,*,#109,.T.);
#156=ORIENTED_EDGE('',*,*,#119,.T.);
#157=ORIENTED_EDGE('',*,*,#111,.F.);
#158=ORIENTED_EDGE('',*,*,#120,.F.);
#159=ORIENTED_EDGE('',*,*,#119,.F.);
#160=ORIENTED_EDGE('',*,*,#108,.T.);
#161=ORIENTED_EDGE('',*,*,#97,.F.);
#162=ORIENTED_EDGE('',*,*,#103,.T.);
#163=ORIENTED_EDGE('',*,*,#118,.F.);
#164=ORIENTED_EDGE('',*,*,#120,.T.);
#165=ORIENTED_EDGE('',*,*,#110,.F.);
#166=ORIENTED_EDGE('',*,*,#114,.T.);
#167=ORIENTED_EDGE('',*,*,#115,.F.);
#168=ORIENTED_EDGE('',*,*,#117,.T.);
#169=CYLINDRICAL_SURFACE('',#206,0.5);
#170=CYLINDRICAL_SURFACE('',#214,0.5);
#171=CYLINDRICAL_SURFACE('',#217,0.5);
#172=CYLINDRICAL_SURFACE('',#220,0.5);
#173=ADVANCED_FACE('',(#21),#169,.T.);
#174=ADVANCED_FACE('',(#22),#15,.T.);
#175=ADVANCED_FACE('',(#23),#16,.F.);
#176=ADVANCED_FACE('',(#24),#170,.T.);
#177=ADVANCED_FACE('',(#25),#17,.T.);
#178=ADVANCED_FACE('',(#26),#171,.T.);
#179=ADVANCED_FACE('',(#27),#18,.T.);
#180=ADVANCED_FACE('',(#28),#172,.T.);
#181=ADVANCED_FACE('',(#29),#19,.T.);
#182=ADVANCED_FACE('',(#30),#20,.T.);
#183=CLOSED_SHELL('',(#173,#174,#175,#176,#177,#178,#179,#180,#181,#182));
#184=DERIVED_UNIT_ELEMENT(#187,1.);
#185=DERIVED_UNIT_ELEMENT(#334,-3.);
#186=DIMENSIONAL_EXPONENTS(0.,1.,0.,0.,0.,0.,0.);
#187=(
CONVERSION_BASED_UNIT('gram',#189)
MASS_UNIT()
NAMED_UNIT(#186)
);
#188=(
MASS_UNIT()
NAMED_UNIT(*)
SI_UNIT(.KILO.,.GRAM.)
);
#189=MASS_MEASURE_WITH_UNIT(MASS_MEASURE(0.001),#188);
#190=DERIVED_UNIT((#184,#185));
#191=MEASURE_REPRESENTATION_ITEM('density measure',
POSITIVE_RATIO_MEASURE(1.),#190);
#192=PROPERTY_DEFINITION_REPRESENTATION(#197,#194);
#193=PROPERTY_DEFINITION_REPRESENTATION(#198,#195);
#194=REPRESENTATION('material name',(#196),#331);
#195=REPRESENTATION('density',(#191),#331);
#196=DESCRIPTIVE_REPRESENTATION_ITEM('Generic','Generic');
#197=PROPERTY_DEFINITION('material property','material name',#341);
#198=PROPERTY_DEFINITION('material property','density of part',#341);
#199=DATE_TIME_ROLE('creation_date');
#200=APPLIED_DATE_AND_TIME_ASSIGNMENT(#201,#199,(#341));
#201=DATE_AND_TIME(#202,#203);
#202=CALENDAR_DATE(2026,4,9);
#203=LOCAL_TIME(0,0,0.,#204);
#204=COORDINATED_UNIVERSAL_TIME_OFFSET(0,0,.BEHIND.);
#205=AXIS2_PLACEMENT_3D('',#278,#224,#225);
#206=AXIS2_PLACEMENT_3D('',#279,#226,#227);
#207=AXIS2_PLACEMENT_3D('',#282,#228,#229);
#208=AXIS2_PLACEMENT_3D('',#286,#231,#232);
#209=AXIS2_PLACEMENT_3D('',#288,#234,#235);
#210=AXIS2_PLACEMENT_3D('',#294,#239,#240);
#211=AXIS2_PLACEMENT_3D('',#298,#242,#243);
#212=AXIS2_PLACEMENT_3D('',#302,#245,#246);
#213=AXIS2_PLACEMENT_3D('',#305,#248,#249);
#214=AXIS2_PLACEMENT_3D('',#306,#250,#251);
#215=AXIS2_PLACEMENT_3D('',#309,#252,#253);
#216=AXIS2_PLACEMENT_3D('',#312,#256,#257);
#217=AXIS2_PLACEMENT_3D('',#316,#260,#261);
#218=AXIS2_PLACEMENT_3D('',#318,#262,#263);
#219=AXIS2_PLACEMENT_3D('',#320,#265,#266);
#220=AXIS2_PLACEMENT_3D('',#322,#268,#269);
#221=AXIS2_PLACEMENT_3D('',#324,#270,#271);
#222=AXIS2_PLACEMENT_3D('',#326,#273,#274);
#223=AXIS2_PLACEMENT_3D('',#328,#276,#277);
#224=DIRECTION('axis',(0.,0.,1.));
#225=DIRECTION('refdir',(1.,0.,0.));
#226=DIRECTION('center_axis',(0.,1.,0.));
#227=DIRECTION('ref_axis',(-0.707106781186548,0.,-0.707106781186548));
#228=DIRECTION('center_axis',(0.,-1.,0.));
#229=DIRECTION('ref_axis',(-0.707106781186548,0.,-0.707106781186548));
#230=DIRECTION('',(0.,-1.,0.));
#231=DIRECTION('center_axis',(0.,1.,0.));
#232=DIRECTION('ref_axis',(-0.707106781186548,0.,-0.707106781186548));
#233=DIRECTION('',(0.,1.,0.));
#234=DIRECTION('center_axis',(-1.,0.,0.));
#235=DIRECTION('ref_axis',(0.,0.,1.));
#236=DIRECTION('',(0.,0.,1.));
#237=DIRECTION('',(0.,-1.,0.));
#238=DIRECTION('',(0.,0.,1.));
#239=DIRECTION('center_axis',(0.,1.,0.));
#240=DIRECTION('ref_axis',(0.,0.,1.));
#241=DIRECTION('',(-1.,0.,0.));
#242=DIRECTION('center_axis',(0.,1.,0.));
#243=DIRECTION('ref_axis',(0.707106781186548,0.,-0.707106781186548));
#244=DIRECTION('',(0.,0.,-1.));
#245=DIRECTION('center_axis',(0.,1.,0.));
#246=DIRECTION('ref_axis',(0.707106781186548,0.,0.707106781186548));
#247=DIRECTION('',(1.,0.,0.));
#248=DIRECTION('center_axis',(0.,1.,0.));
#249=DIRECTION('ref_axis',(-0.707106781186548,0.,0.707106781186548));
#250=DIRECTION('center_axis',(0.,1.,0.));
#251=DIRECTION('ref_axis',(0.707106781186548,0.,0.707106781186548));
#252=DIRECTION('center_axis',(0.,-1.,0.));
#253=DIRECTION('ref_axis',(0.707106781186548,0.,0.707106781186548));
#254=DIRECTION('',(0.,-1.,0.));
#255=DIRECTION('',(0.,1.,0.));
#256=DIRECTION('center_axis',(1.,0.,0.));
#257=DIRECTION('ref_axis',(0.,0.,-1.));
#258=DIRECTION('',(0.,-1.,0.));
#259=DIRECTION('',(0.,0.,-1.));
#260=DIRECTION('center_axis',(0.,1.,0.));
#261=DIRECTION('ref_axis',(0.707106781186548,0.,-0.707106781186548));
#262=DIRECTION('center_axis',(0.,-1.,0.));
#263=DIRECTION('ref_axis',(0.707106781186548,0.,-0.707106781186548));
#264=DIRECTION('',(0.,1.,0.));
#265=DIRECTION('center_axis',(0.,0.,-1.));
#266=DIRECTION('ref_axis',(-1.,0.,0.));
#267=DIRECTION('',(-1.,0.,0.));
#268=DIRECTION('center_axis',(0.,1.,0.));
#269=DIRECTION('ref_axis',(-0.707106781186548,0.,0.707106781186548));
#270=DIRECTION('center_axis',(0.,-1.,0.));
#271=DIRECTION('ref_axis',(-0.707106781186548,0.,0.707106781186548));
#272=DIRECTION('',(0.,1.,0.));
#273=DIRECTION('center_axis',(0.,0.,1.));
#274=DIRECTION('ref_axis',(1.,0.,0.));
#275=DIRECTION('',(1.,0.,0.));
#276=DIRECTION('center_axis',(0.,1.,0.));
#277=DIRECTION('ref_axis',(0.,0.,1.));
#278=CARTESIAN_POINT('',(0.,0.,0.));
#279=CARTESIAN_POINT('Origin',(-2.8,0.,-2.7));
#280=CARTESIAN_POINT('',(-3.3,5.8,-2.7));
#281=CARTESIAN_POINT('',(-2.8,5.8,-3.2));
#282=CARTESIAN_POINT('Origin',(-2.8,5.8,-2.7));
#283=CARTESIAN_POINT('',(-2.8,0.,-3.2));
#284=CARTESIAN_POINT('',(-2.8,0.,-3.2));
#285=CARTESIAN_POINT('',(-3.3,0.,-2.7));
#286=CARTESIAN_POINT('Origin',(-2.8,0.,-2.7));
#287=CARTESIAN_POINT('',(-3.3,0.,-2.7));
#288=CARTESIAN_POINT('Origin',(-3.3,0.,-3.2));
#289=CARTESIAN_POINT('',(-3.3,0.,2.7));
#290=CARTESIAN_POINT('',(-3.3,0.,-3.2));
#291=CARTESIAN_POINT('',(-3.3,5.8,2.7));
#292=CARTESIAN_POINT('',(-3.3,0.,2.7));
#293=CARTESIAN_POINT('',(-3.3,5.8,-3.2));
#294=CARTESIAN_POINT('Origin',(0.,0.,0.));
#295=CARTESIAN_POINT('',(2.8,0.,-3.2));
#296=CARTESIAN_POINT('',(3.3,0.,-3.2));
#297=CARTESIAN_POINT('',(3.3,0.,-2.7));
#298=CARTESIAN_POINT('Origin',(2.8,0.,-2.7));
#299=CARTESIAN_POINT('',(3.3,0.,2.7));
#300=CARTESIAN_POINT('',(3.3,0.,3.2));
#301=CARTESIAN_POINT('',(2.8,0.,3.2));
#302=CARTESIAN_POINT('Origin',(2.8,0.,2.7));
#303=CARTESIAN_POINT('',(-2.8,0.,3.2));
#304=CARTESIAN_POINT('',(-3.3,0.,3.2));
#305=CARTESIAN_POINT('Origin',(-2.8,0.,2.7));
#306=CARTESIAN_POINT('Origin',(2.8,0.,2.7));
#307=CARTESIAN_POINT('',(3.3,5.8,2.7));
#308=CARTESIAN_POINT('',(2.8,5.8,3.2));
#309=CARTESIAN_POINT('Origin',(2.8,5.8,2.7));
#310=CARTESIAN_POINT('',(2.8,0.,3.2));
#311=CARTESIAN_POINT('',(3.3,0.,2.7));
#312=CARTESIAN_POINT('Origin',(3.3,0.,3.2));
#313=CARTESIAN_POINT('',(3.3,5.8,-2.7));
#314=CARTESIAN_POINT('',(3.3,0.,-2.7));
#315=CARTESIAN_POINT('',(3.3,5.8,3.2));
#316=CARTESIAN_POINT('Origin',(2.8,0.,-2.7));
#317=CARTESIAN_POINT('',(2.8,5.8,-3.2));
#318=CARTESIAN_POINT('Origin',(2.8,5.8,-2.7));
#319=CARTESIAN_POINT('',(2.8,0.,-3.2));
#320=CARTESIAN_POINT('Origin',(3.3,0.,-3.2));
#321=CARTESIAN_POINT('',(3.3,5.8,-3.2));
#322=CARTESIAN_POINT('Origin',(-2.8,0.,2.7));
#323=CARTESIAN_POINT('',(-2.8,5.8,3.2));
#324=CARTESIAN_POINT('Origin',(-2.8,5.8,2.7));
#325=CARTESIAN_POINT('',(-2.8,0.,3.2));
#326=CARTESIAN_POINT('Origin',(-3.3,0.,3.2));
#327=CARTESIAN_POINT('',(-3.3,5.8,3.2));
#328=CARTESIAN_POINT('Origin',(0.,5.8,0.));
#329=UNCERTAINTY_MEASURE_WITH_UNIT(LENGTH_MEASURE(0.01),#333,
'DISTANCE_ACCURACY_VALUE',
'Maximum model space distance between geometric entities at asserted c
onnectivities');
#330=UNCERTAINTY_MEASURE_WITH_UNIT(LENGTH_MEASURE(0.01),#333,
'DISTANCE_ACCURACY_VALUE',
'Maximum model space distance between geometric entities at asserted c
onnectivities');
#331=(
GEOMETRIC_REPRESENTATION_CONTEXT(3)
GLOBAL_UNCERTAINTY_ASSIGNED_CONTEXT((#329))
GLOBAL_UNIT_ASSIGNED_CONTEXT((#333,#335,#336))
REPRESENTATION_CONTEXT('','3D')
);
#332=(
GEOMETRIC_REPRESENTATION_CONTEXT(3)
GLOBAL_UNCERTAINTY_ASSIGNED_CONTEXT((#330))
GLOBAL_UNIT_ASSIGNED_CONTEXT((#333,#335,#336))
REPRESENTATION_CONTEXT('','3D')
);
#333=(
LENGTH_UNIT()
NAMED_UNIT(*)
SI_UNIT(.MILLI.,.METRE.)
);
#334=(
LENGTH_UNIT()
NAMED_UNIT(*)
SI_UNIT(.CENTI.,.METRE.)
);
#335=(
NAMED_UNIT(*)
PLANE_ANGLE_UNIT()
SI_UNIT($,.RADIAN.)
);
#336=(
NAMED_UNIT(*)
SI_UNIT($,.STERADIAN.)
SOLID_ANGLE_UNIT()
);
#337=SHAPE_DEFINITION_REPRESENTATION(#338,#339);
#338=PRODUCT_DEFINITION_SHAPE('',$,#341);
#339=SHAPE_REPRESENTATION('',(#205),#331);
#340=PRODUCT_DEFINITION_CONTEXT('part definition',#345,'design');
#341=PRODUCT_DEFINITION('Part1','Part1',#342,#340);
#342=PRODUCT_DEFINITION_FORMATION('',$,#347);
#343=PRODUCT_RELATED_PRODUCT_CATEGORY('Part1','Part1',(#347));
#344=APPLICATION_PROTOCOL_DEFINITION('international standard',
'automotive_design',2009,#345);
#345=APPLICATION_CONTEXT(
'Core Data for Automotive Mechanical Design Process');
#346=PRODUCT_CONTEXT('part definition',#345,'mechanical');
#347=PRODUCT('Part1','Part1',$,(#346));
#348=PRESENTATION_STYLE_ASSIGNMENT((#350));
#349=PRESENTATION_STYLE_ASSIGNMENT((#351));
#350=SURFACE_STYLE_USAGE(.BOTH.,#356);
#351=SURFACE_STYLE_USAGE(.BOTH.,#357);
#352=SURFACE_STYLE_RENDERING_WITH_PROPERTIES($,#364,(#354));
#353=SURFACE_STYLE_RENDERING_WITH_PROPERTIES($,#365,(#355));
#354=SURFACE_STYLE_TRANSPARENT(0.);
#355=SURFACE_STYLE_TRANSPARENT(0.);
#356=SURFACE_SIDE_STYLE('',(#358,#352));
#357=SURFACE_SIDE_STYLE('',(#359,#353));
#358=SURFACE_STYLE_FILL_AREA(#360);
#359=SURFACE_STYLE_FILL_AREA(#361);
#360=FILL_AREA_STYLE('',(#362));
#361=FILL_AREA_STYLE('',(#363));
#362=FILL_AREA_STYLE_COLOUR('',#364);
#363=FILL_AREA_STYLE_COLOUR('',#365);
#364=COLOUR_RGB('',0.749019607843137,0.749019607843137,0.749019607843137);
#365=COLOUR_RGB('',0.258823529411765,0.258823529411765,0.258823529411765);
ENDSEC;
END-ISO-10303-21;
